# xmcd
# 
# Track frame offsets:
#     150
#     11550
#     33042
#     59272
#     77412
#     94127
#     123155
#     143967
#     165332
#     180042
#     205847
#     225487
# 
# Disc length: 3250
# 
# Revision: 37
# Processed by: cddbd v1.5.2PL0 Copyright (c) Steve Scherf et al.
# Submitted via: fre:ac v1.0.31
# 
DISCID=800cb00c
DTITLE=Alice In Chains - Facelift
DYEAR=1990
DGENRE=Hard Rock
TTITLE0=We Die Young
TTITLE1=Man In The Box
TTITLE2=Sea Of Sorrow
TTITLE3=Bleed The Freak
TTITLE4=I Can't Remember
TTITLE5=Love, Hate, Love
TTITLE6=It Ain't Like That
TTITLE7=Sunshine
TTITLE8=Put You Down
TTITLE9=Confusion
TTITLE10=I Know Somethin (Bout You)
TTITLE11=Real Thing
EXTD=
EXTT0=
EXTT1=
EXTT2=
EXTT3=
EXTT4=
EXTT5=
EXTT6=
EXTT7=
EXTT8=
EXTT9=
EXTT10=
EXTT11=
PLAYORDER=
